
<svg width="24" height="23" viewBox="0 0 24 23" fill="none" xmlns="http://www.w3.org/2000/svg">
<path d="M17.7103 14.4671V17.8292H0V15.1548L9.78058 3.36208H0.203762V0H15.2058V2.67438L5.45064 14.4671H17.7103Z" fill="url(#paint0_linear_230_8439)"/>
<path d="M23.2969 21.166C22.9064 21.4546 22.4224 21.6754 21.8451 21.8282C21.2847 21.964 20.6904 22.032 20.0622 22.032C18.4321 22.032 17.167 21.616 16.2671 20.7839C15.3841 19.9519 14.9426 18.7293 14.9426 17.1162V11.4873H12.8286V8.43084H14.9426V5.09424H18.916V8.43084H22.329V11.4873H18.916V17.0653C18.916 17.6426 19.0603 18.0926 19.349 18.4152C19.6546 18.7208 20.0792 18.8737 20.6225 18.8737C21.2508 18.8737 21.7857 18.7039 22.2271 18.3642L23.2969 21.166Z" fill="url(#paint1_linear_230_8439)"/>
<defs>
<linearGradient id="paint0_linear_230_8439" x1="-0.380101" y1="16.185" x2="15.2913" y2="2.59581" gradientUnits="userSpaceOnUse">
<stop stop-color="#6DF1FF"/>
<stop stop-color="#32B6FF"/>
<stop offset="1" stop-color="#795CEC"/>
</linearGradient>
<linearGradient id="paint1_linear_230_8439" x1="12.6039" y1="20.47" x2="25.1734" y2="13.6885" gradientUnits="userSpaceOnUse">
<stop stop-color="#6DF1FF"/>
<stop stop-color="#32B6FF"/>
<stop offset="1" stop-color="#795CEC"/>
</linearGradient>
</defs>
</svg>
